<svg id="Layer_1" data-name="Layer 1" xmlns="http://www.w3.org/2000/svg" viewBox="0 0 1190.3 439.95"><defs><style>.cls-1{fill:#9b6f59;fill-rule:evenodd;}</style></defs><title>Cutitlogo#9E715A</title><path class="cls-1" d="M218.57,144.21q24.74,0,41.53,14.3t25.65,42.89l.9,4.54q-12.7,13.84-23.6,21.33t-20,8.62c0,.46-.68.91-2,1.36a43.28,43.28,0,0,1-6.13,1.37q-4.87-13.17-13.73-19.75t-21.67-6.58H195q-14.52,0-21.79,13.16t-7.26,39.49q-1.36,9.76-2.72,26.1t-2.73,39.26q0,12.6,9.08,19.86t27.23,9.19h5.45q6.24,0,12.82-6.58T228.56,333q2.94-8.06,4.54-12.14a25.36,25.36,0,0,1,1.81-4.2q18.15,6.7,29.5,14.64t15.89,17.13q-1.37,11.24-7.72,25.08a204,204,0,0,1-17.7,30.3Q239,419.27,223.34,427t-31.09,7.71h-10q-30,0-49-16.11T106,370.24q-1.82-13.73-2.72-26.44t-.91-24.39a448.91,448.91,0,0,1,3-48.91q2.94-26.77,8.85-58.21a97.8,97.8,0,0,1,17.7-30.52,98.8,98.8,0,0,1,27.69-22.13,154.71,154.71,0,0,1,19.74-9.3,139.35,139.35,0,0,1,20.2-6.13Zm82.72,55.37a90.82,90.82,0,0,1,8.06,24.51v1.82a143.12,143.12,0,0,1-20.88,19.85,71.21,71.21,0,0,1-20,11q-7.49,2.73-12.26,4.09a29.1,29.1,0,0,1-6.81,1.36,22.27,22.27,0,0,0-2-7.49,51.69,51.69,0,0,0-5.22-8.85,108.64,108.64,0,0,0,31.09-15.43,90.13,90.13,0,0,0,22.47-23.61,106.6,106.6,0,0,0-3.18-11.57q-2.26-7-5.9-16.57A87.51,87.51,0,0,1,301.29,199.58ZM196.78,220.46a33.27,33.27,0,0,1,15.89,3.63A30,30,0,0,1,224,235v.91l-4.54-.91h-7.26a17.61,17.61,0,0,0-11.92,4.32q-5,4.3-8.05,12.93a42.53,42.53,0,0,0-2.05,7.49,55.89,55.89,0,0,0-.68,10.67l-.9,1.81h.9l-.9,1.82q-1.83,28.37-3.41,46.75t-3,26.78a27.87,27.87,0,0,1-10.21-8.63,19.66,19.66,0,0,1-3.41-11.34q3.53-49,6.47-73.53t5.34-24.51a17.08,17.08,0,0,1,6-6.81,15.75,15.75,0,0,1,8.51-2.27Zm93.5,128.9q6.81,7.15,10.22,11.24t3.4,5.1A129.71,129.71,0,0,1,292.21,400a135.89,135.89,0,0,1-21,30.18q-15.66,13.62-30.64,20.43a70.4,70.4,0,0,1-29.27,6.81h-11.8a84.84,84.84,0,0,1-30.87-5.45,76.1,76.1,0,0,1-25.41-16.34h.9a113.2,113.2,0,0,0,17.59,5.45,75.77,75.77,0,0,0,16,1.81H195q14.07,0,29.27-6.81t31.55-20.42A140.53,140.53,0,0,0,277,384.88a143.12,143.12,0,0,0,12.37-35.52Z" transform="translate(-102.38 -139.22)"/><path class="cls-1" d="M483.41,202.08a156.37,156.37,0,0,1,21.33,5.45q-8.62,80.32-13.84,125.27t-7,54.46a83,83,0,0,1-12.36,22.81,60.74,60.74,0,0,1-17.59,15.32,94.5,94.5,0,0,1-19.75,8.17,71.68,71.68,0,0,1-19.29,2.72h-4.53q-37.45,0-60.14-12t-30.64-36.08a34.86,34.86,0,0,1-1.82-5.11c-.6-2.12-1.21-4.65-1.81-7.6q0-6.58,1.59-48.56t4.76-119.37q9.87-1.83,18-2.73a135.41,135.41,0,0,1,14.64-.91h10a71.32,71.32,0,0,1,9.53.68,98.32,98.32,0,0,1,10.44,2.05q-4.1,36.19-6.36,58.89t-2.72,31.88a24.85,24.85,0,0,0,5.45,16q5.44,6.81,16.34,11.24,4,.45,6.24.68c1.51.15,2.46.22,2.83.22a24.8,24.8,0,0,0,16-5.67q7-5.67,12.14-17,.8,0,2.16-25.19t3.29-75.57q8.5-.92,14.41-1.36t9.19-.46A111.63,111.63,0,0,1,483.41,202.08Zm-79.88,17.81q3.63.92,4.08,2.16-4.53,46.41-7,69.78t-2.95,23.72A27,27,0,0,1,387.41,307a19.86,19.86,0,0,1-3.4-11.46q3.86-38.58,6.13-57.87t2.95-19.29A70.7,70.7,0,0,1,403.53,219.89Zm116.53-.34a33.64,33.64,0,0,1,7.38,3.41q-9.09,90.09-14.75,137.3t-8,51.51a79.36,79.36,0,0,1-14.18,22.69,69.23,69.23,0,0,1-20.31,15.44,115.76,115.76,0,0,1-19.18,6.8A70.38,70.38,0,0,1,433.94,459h-8.17q-26.67,0-45.28-5.9t-29.16-17.7h1.82a100.45,100.45,0,0,0,25.53,7.49,201.3,201.3,0,0,0,33.47,2.5q24.63,0,43.46-10.9t31.88-32.67q3.64-5.91,7.49-31.1T502.93,301q4.08-39.7,6.58-60.36t3.4-22.24A24.06,24.06,0,0,1,520.06,219.55Z" transform="translate(-102.38 -139.22)"/><path class="cls-1" d="M598.58,197.77q48.67-1,141.73-3.18l.68,3.63q2.37,13.4.11,30.64a214.24,214.24,0,0,1-9.19,38.35q-28-1.59-43.35-2.16t-17.93-.11l-1.58.45q-1.49,1-4.09,13.9t-6.35,37.62l-20.2,109.61-1.82.23a72.36,72.36,0,0,1-28.53-.45A80.06,80.06,0,0,1,581,414.49l-.22-.9q.57-2.05,7.37-39.21T608,264.94c-.3-1.74-3-2.85-7.94-3.35s-12.33-.36-22,.4q-21.1-.11-32-.51c-7.27-.26-11.12-.62-11.58-1.08a81.25,81.25,0,0,1,.4-28.82,140.3,140.3,0,0,1,10.72-32.91Q549.91,198.79,598.58,197.77ZM765.27,205l1.13,6.35a112.34,112.34,0,0,1,.12,35.24,175.7,175.7,0,0,1-11,39.43l-62.86-1.82-28.82,160.9-2.73.45a86.21,86.21,0,0,1-32.56-.28A90,90,0,0,1,598,432.65l.91-.23a98.13,98.13,0,0,0,19.41,3.52,73.2,73.2,0,0,0,17.81-.79l8.17-1.37q1.59-.33,3.4-8.28T651.57,402L675,273.56l.9-.22,59.46,2.49q4.65-4.31,8.4-17.19t6.58-34.32q.23-8.85.28-13.73c0-3.25,0-5.18-.05-5.79ZM550.13,270.61l.91-.22q23.37-.69,35.12-.46T598,271.3l.23.9a27.21,27.21,0,0,0-1.19,4.88,11,11,0,0,0,.06,3.75q-20.88,0-32.17.11t-13,.34Z" transform="translate(-102.38 -139.22)"/><path class="cls-1" d="M940.24,143.3A20.36,20.36,0,0,1,950,155.56l.91,5.44v1.82q0,15.88-6.36,23.83t-19.06,7.94h-8.17a31.4,31.4,0,0,1-15-3.4A27,27,0,0,1,891.9,181a42.8,42.8,0,0,1-2-6.35,24,24,0,0,1-.68-5.45q0-15,7.94-22.46T921,139.22Q933,139.22,940.24,143.3Zm18.84,14.07h.9a23.37,23.37,0,0,1,10.22,9,26.28,26.28,0,0,1,3.4,13.73v1.81q0,13.27-4.54,21.67a25.42,25.42,0,0,1-13.62,11.92,53.73,53.73,0,0,1-5.9,1.36,30.76,30.76,0,0,1-5,.45h-8.17a38.45,38.45,0,0,1-17.81-3.85,30.17,30.17,0,0,1-12.14-11.58l9.07.91h12.71A29.42,29.42,0,0,0,945.12,198q7-4.76,11.23-14.29a47.92,47.92,0,0,0,2-8.51,64.25,64.25,0,0,0,.69-9.65ZM901,244.52h17.25q16.78,1.13,25.19,3.63t8.39,6.35l17.25,158h-.91a209,209,0,0,1-33.58,12.26,115.76,115.76,0,0,1-29.05,4.08Zm59.91,17.24q6.36.92,9.53,2.95a6.07,6.07,0,0,1,3.18,5.22l19.06,162.49q-36.76,19.06-73.53,19.07V436.05A226.94,226.94,0,0,0,953,428.11,104,104,0,0,0,977.23,417l.91-1.81Z" transform="translate(-102.38 -139.22)"/><path class="cls-1" d="M1066.87,196.63q48.68-1,138.89-2l.68,3.63q2,11-.23,28.25a298.23,298.23,0,0,1-8.85,40.74q-28-1.59-43.34-2.16t-17.93-.11l-1.59.45c-1,.69-2.35,5.32-4.08,13.9s-3.86,21.13-6.36,37.62l-20.2,109.61-1.81.23a72.41,72.41,0,0,1-28.54-.45,79.93,79.93,0,0,1-27.06-11.81l-.23-.9q.57-2.05,7.38-39.21t19.85-109.44c-.3-1.74-3-2.85-7.94-3.35s-12.33-.36-22,.4q-21.1-.11-32-.51t-11.58-1.08a105.89,105.89,0,0,1,.86-31.54A109.26,109.26,0,0,1,1011,198.67Q1018.2,197.65,1066.87,196.63Zm163.85,8.4,1.14,6.35a112,112,0,0,1,.11,35.24,174.65,174.65,0,0,1-11,39.43l-62.86-1.82-28.82,160.9-2.72.45a74.62,74.62,0,0,1-30.75-.05q-15.78-3.24-32.34-12.88l.91-.23a156.58,156.58,0,0,0,19.4,2.73,117.59,117.59,0,0,0,17.81,0l8.17-1.37q1.59-.33,3.41-8.28T1117,402l23.37-128.45.91-.22,59.46,2.49q4.65-4.31,8.39-17.19t6.58-34.32c-.22-4.39-.32-8.21-.28-11.46a65.08,65.08,0,0,1,.51-8.06Zm-215.14,65.58.91-.22q23.37-.69,35.12-.46t11.86,1.37l.22.9a27.21,27.21,0,0,0-1.19,4.88,11,11,0,0,0,.06,3.75q-20.88,0-32.17.11t-13,.34Z" transform="translate(-102.38 -139.22)"/><path class="cls-1" d="M1245.47,170.53a117.68,117.68,0,0,1,17,.91c3.79.61,5.68,1.51,5.68,2.73l1.81,19.06q-.9,10.32-1.36,18.27t-.45,13.5q-6.36-.34-9.53-2.16a5.62,5.62,0,0,1-3.18-5.1q-1.37-.8-5.67-5.79t-11.58-14.18v-10q0-8.62,1.14-12.93c.75-2.88,1.89-4.32,3.4-4.32Zm37.22,14.53q5,0,7.49,6.58t2.5,19.74q-.92,18.17-2,27.24t-2.49,9.07h-1.82a26.49,26.49,0,0,1-10-1.59,10,10,0,0,1-5.45-4.76l-5.45-7.26v-.91H1270a5.09,5.09,0,0,0,4.77-3.18c1.06-2.12,1.59-5.29,1.59-9.53q.9-8.18,1.36-17t.45-18.38Z" transform="translate(-102.38 -139.22)"/><path class="cls-1" d="M391.8,570a1,1,0,0,1-.23.64,1.67,1.67,0,0,1-.77.47,10.17,10.17,0,0,1-2.43.36q-.56,0-1.23,0a20.54,20.54,0,0,1-2.3-.11,7.69,7.69,0,0,1-1.42-.28c-.78-.26-1-.73-1-1.11V551.34H365.21V570a1,1,0,0,1-.21.64,1.49,1.49,0,0,1-.75.47,10.27,10.27,0,0,1-2.44.36q-.57,0-1.26,0a20,20,0,0,1-2.26-.11,8,8,0,0,1-1.44-.28c-.8-.26-1-.73-1-1.11V526.46a1,1,0,0,1,.23-.64,1.67,1.67,0,0,1,.77-.47,10.29,10.29,0,0,1,2.46-.36c.37,0,.79,0,1.24,0a20.15,20.15,0,0,1,2.28.11,8.05,8.05,0,0,1,1.42.28c.81.26.95.72,1,1.11v16.9h17.23v-16.9a1,1,0,0,1,.23-.64,1.59,1.59,0,0,1,.75-.47,10.12,10.12,0,0,1,2.45-.36c.38,0,.8,0,1.27,0a19.51,19.51,0,0,1,2.24.11,8.05,8.05,0,0,1,1.42.28c.81.26,1,.72,1,1.11Z" transform="translate(-102.38 -139.22)"/><path class="cls-1" d="M429.05,569.29a4.27,4.27,0,0,1-.27,1.12,1.11,1.11,0,0,1-1,.82H404.61a2.9,2.9,0,0,1-2-.69,2.08,2.08,0,0,1-.6-.91,3.92,3.92,0,0,1-.2-1.35V528.13a2.83,2.83,0,0,1,.8-2.26,2.89,2.89,0,0,1,2-.69h23c.35,0,.68.05,1,.8a8.6,8.6,0,0,1,.36,2.9,13.44,13.44,0,0,1-.09,1.69,4.48,4.48,0,0,1-.27,1.12c-.26.65-.65.82-1,.82H411.16v11.25h13.92c.34,0,.69.07,1,.8a8,8,0,0,1,.36,2.79,13.34,13.34,0,0,1-.09,1.71,4,4,0,0,1-.27,1.08,1.08,1.08,0,0,1-1,.77H411.16v13h16.59c.34,0,.69.06,1,.82a8.48,8.48,0,0,1,.36,2.85A13.63,13.63,0,0,1,429.05,569.29Z" transform="translate(-102.38 -139.22)"/><path class="cls-1" d="M471.42,570.68a1.12,1.12,0,0,1-.67.45,6.83,6.83,0,0,1-1.57.25l-1.22,0-1.59,0c-1,0-1.79,0-2.39-.07a5.33,5.33,0,0,1-1.4-.27,1.66,1.66,0,0,1-1.09-1.23l-4.13-10.29c-.5-1.16-1-2.19-1.46-3.09a9.7,9.7,0,0,0-1.58-2.26,5.83,5.83,0,0,0-3.24-1.72,33.88,33.88,0,0,0-4.32-.12V570a1,1,0,0,1-.24.64,1.58,1.58,0,0,1-.76.47,10.35,10.35,0,0,1-2.44.36q-.57,0-1.26,0a20,20,0,0,1-2.26-.11,8,8,0,0,1-1.44-.28c-.81-.26-1-.73-1-1.11V528.13a2.83,2.83,0,0,1,.8-2.26,2.87,2.87,0,0,1,2-.69H452.1c1.21,0,2.2,0,3,.07s1.45.1,2.14.18a19.36,19.36,0,0,1,5,1.35,11.84,11.84,0,0,1,3.77,2.51,10.24,10.24,0,0,1,2.37,3.66,12.29,12.29,0,0,1,.62,2.28,16.27,16.27,0,0,1,.2,2.58,14.35,14.35,0,0,1-.59,4.22,10.79,10.79,0,0,1-1.72,3.4,12.35,12.35,0,0,1-4.6,3.59,17.31,17.31,0,0,1-2,.79,10.64,10.64,0,0,1,1.94,1.21,10.27,10.27,0,0,1,1.7,1.72A22.58,22.58,0,0,1,466.8,558l3.87,9.08c.36.9.6,1.56.72,2A2.32,2.32,0,0,1,471.42,570.68Zm-12.95-35.75a4.74,4.74,0,0,0-1.37-1.34,7.36,7.36,0,0,0-2-.87,12.42,12.42,0,0,0-1.61-.28,10.44,10.44,0,0,0-1.09-.08c-.41,0-.89,0-1.42,0h-4.2v13.06h4.77a11.39,11.39,0,0,0,3.48-.48,7,7,0,0,0,2.5-1.35,6.17,6.17,0,0,0,2-4.79A6.87,6.87,0,0,0,458.47,534.93Z" transform="translate(-102.38 -139.22)"/><path class="cls-1" d="M512.46,570.68a1.12,1.12,0,0,1-.68.45,6.63,6.63,0,0,1-1.56.25l-1.22,0-1.59,0c-1,0-1.79,0-2.39-.07a5.33,5.33,0,0,1-1.4-.27,1.66,1.66,0,0,1-1.09-1.23l-4.13-10.29c-.5-1.16-1-2.19-1.46-3.09a9.7,9.7,0,0,0-1.58-2.26,5.87,5.87,0,0,0-3.24-1.72,34,34,0,0,0-4.33-.12V570a1,1,0,0,1-.23.64,1.63,1.63,0,0,1-.76.47,10.35,10.35,0,0,1-2.44.36q-.57,0-1.26,0a19.89,19.89,0,0,1-2.26-.11,8.28,8.28,0,0,1-1.45-.28c-.8-.26-.95-.73-1-1.11V528.13a2.86,2.86,0,0,1,.8-2.26,2.89,2.89,0,0,1,2-.69h11.92c1.21,0,2.21,0,3,.07s1.45.1,2.14.18a19.36,19.36,0,0,1,5,1.35,11.84,11.84,0,0,1,3.77,2.51A10.37,10.37,0,0,1,509.4,533a11.55,11.55,0,0,1,.61,2.28,15.14,15.14,0,0,1,.21,2.58,14.35,14.35,0,0,1-.59,4.22,11,11,0,0,1-1.72,3.4A12.3,12.3,0,0,1,503.3,549a16,16,0,0,1-2,.79,10.24,10.24,0,0,1,3.65,2.93,22.19,22.19,0,0,1,2.9,5.25l3.88,9.08c.36.9.6,1.56.72,2A2.32,2.32,0,0,1,512.46,570.68Zm-13-35.75a4.74,4.74,0,0,0-1.37-1.34,7.36,7.36,0,0,0-2-.87,12.29,12.29,0,0,0-1.62-.28,10,10,0,0,0-1.08-.08c-.42,0-.89,0-1.43,0h-4.2v13.06h4.77a11.41,11.41,0,0,0,3.49-.48,6.9,6.9,0,0,0,2.49-1.35,6.18,6.18,0,0,0,2-4.79A6.87,6.87,0,0,0,499.51,534.93Z" transform="translate(-102.38 -139.22)"/><path class="cls-1" d="M546.68,569.29a4.31,4.31,0,0,1-.26,1.12,1.12,1.12,0,0,1-1,.82H522.25a3,3,0,0,1-2-.69,2.26,2.26,0,0,1-.6-.91,4.17,4.17,0,0,1-.2-1.35V528.13a2.86,2.86,0,0,1,.8-2.26,2.89,2.89,0,0,1,2-.69h23c.36,0,.68.05,1,.8a8.61,8.61,0,0,1,.35,2.9,13.66,13.66,0,0,1-.08,1.69,4.48,4.48,0,0,1-.27,1.12c-.26.65-.66.82-1,.82H528.8v11.25h13.92c.34,0,.69.07,1,.8a8.24,8.24,0,0,1,.35,2.79,13.34,13.34,0,0,1-.09,1.71,3.71,3.71,0,0,1-.26,1.08,1.09,1.09,0,0,1-1,.77H528.8v13h16.58c.35,0,.7.06,1,.82a8.49,8.49,0,0,1,.35,2.85A13.63,13.63,0,0,1,546.68,569.29Z" transform="translate(-102.38 -139.22)"/><path class="cls-1" d="M570,554.63a11.73,11.73,0,0,1,1.76-3.33,17.66,17.66,0,0,1,2.9-3c.58-.47,1.2-.94,1.86-1.4s1.39-.92,2.14-1.37c-.85-1.1-1.59-2.12-2.22-3.08a23.49,23.49,0,0,1-1.57-2.76,11.26,11.26,0,0,1-1.22-4.88,12.18,12.18,0,0,1,.89-4.68,9.67,9.67,0,0,1,2.77-3.79,13.79,13.79,0,0,1,4.81-2.54,18.08,18.08,0,0,1,3.21-.71,28,28,0,0,1,3.8-.24,25.74,25.74,0,0,1,6.44.71,12.91,12.91,0,0,1,4.45,2,8.4,8.4,0,0,1,3.24,5.22,11.82,11.82,0,0,1,.21,2.27,10.44,10.44,0,0,1-.73,3.95,11.56,11.56,0,0,1-2.2,3.45,21.08,21.08,0,0,1-3.69,3.15c-.73.51-1.53,1-2.39,1.52s-1.78,1-2.77,1.52c2.28,2.61,5.49,5.69,8.42,8.4.41.37.82.73,1.23,1.07a15,15,0,0,0,1.9-5.69,19.29,19.29,0,0,0,.16-3.21,1.54,1.54,0,0,1,.14-.67,1.08,1.08,0,0,1,.59-.47,8,8,0,0,1,2.24-.33l1.2,0c.83,0,1.51,0,2.06,0a4.84,4.84,0,0,1,1.3.23,1.19,1.19,0,0,1,.87,1.25,25.78,25.78,0,0,1-1,8,22.3,22.3,0,0,1-2.76,6c.83.64,1.55,1.17,2.16,1.6s1.12.76,1.55,1a3.79,3.79,0,0,0,2.51.66.73.73,0,0,1,.55.25,1.91,1.91,0,0,1,.32.89,13.39,13.39,0,0,1,.1,1.89c0,.88,0,1.56,0,2.06-.09.83-.06,1.23-.6,1.69a5.35,5.35,0,0,1-2.73.63,7.17,7.17,0,0,1-1.62-.2,9.23,9.23,0,0,1-1.94-.75,36.17,36.17,0,0,1-4.13-2.49c-.57-.39-1.17-.82-1.81-1.3a33.66,33.66,0,0,1-3.45,2A26.62,26.62,0,0,1,586.78,572a28,28,0,0,1-4.52-.36,22.33,22.33,0,0,1-4.15-1.08,16.47,16.47,0,0,1-3.54-1.84,11.74,11.74,0,0,1-2.74-2.61,12.25,12.25,0,0,1-2.26-5.5,14.71,14.71,0,0,1-.16-2.25A11.83,11.83,0,0,1,570,554.63Zm13.33-18.72a20.12,20.12,0,0,0,3.34,5.64q2.1-1.14,3.51-2.1c2.89-2,3.83-3.72,3.83-5.55a4,4,0,0,0-.33-1.61,3.32,3.32,0,0,0-1-1.29,5.66,5.66,0,0,0-2.76-1.12,9.89,9.89,0,0,0-1.26-.08,8.56,8.56,0,0,0-2.55.34,4.81,4.81,0,0,0-1.73,1A4.57,4.57,0,0,0,583.33,535.91Zm-3.67,24.79a6.23,6.23,0,0,0,1.64,2.2,8.45,8.45,0,0,0,4.35,1.83,13.31,13.31,0,0,0,9.74-2.47,106.43,106.43,0,0,1-9.3-8.52c-.91-.92-1.75-1.83-2.51-2.72a11.83,11.83,0,0,0-2.09,1.62,7.19,7.19,0,0,0-2.4,5.25A6.85,6.85,0,0,0,579.66,560.7Z" transform="translate(-102.38 -139.22)"/><path class="cls-1" d="M676,558.37a18.54,18.54,0,0,1-4.75,7.35,19.23,19.23,0,0,1-7.53,4.18,30.19,30.19,0,0,1-4.86,1,45.78,45.78,0,0,1-5.69.33h-11a2.93,2.93,0,0,1-2-.69,2.08,2.08,0,0,1-.6-.91,4.17,4.17,0,0,1-.2-1.35V528.13a2.86,2.86,0,0,1,.8-2.26,2.89,2.89,0,0,1,2-.69h11.81a33.08,33.08,0,0,1,10.45,1.44,18.9,18.9,0,0,1,7.23,4.27,18.45,18.45,0,0,1,4.46,7,23.51,23.51,0,0,1,1.15,4.5,32.2,32.2,0,0,1,.38,5.15A31.65,31.65,0,0,1,676,558.37Zm-8.79-16.61a12.88,12.88,0,0,0-2.46-4.87,11.46,11.46,0,0,0-4.34-3.23,13.26,13.26,0,0,0-3.07-.86c-2.39-.44-5.67-.25-8.62-.29v31.32h4.87a18.27,18.27,0,0,0,6.48-1,10.8,10.8,0,0,0,4.4-3,13,13,0,0,0,2.63-5,20.4,20.4,0,0,0,.65-3.24,29.4,29.4,0,0,0,.22-3.74A23.2,23.2,0,0,0,667.17,541.76Z" transform="translate(-102.38 -139.22)"/><path class="cls-1" d="M721.32,567.75a13,13,0,0,1,.54,2,1.25,1.25,0,0,1-.29,1.13,2.37,2.37,0,0,1-1.39.46c-.33,0-.72,0-1.18.06s-1,0-1.56,0c-1.21,0-2.15,0-2.83-.06a6.63,6.63,0,0,1-1.55-.21c-.92-.28-.92-.77-1.1-1.19l-3.1-9.26H691.57l-2.92,9a3,3,0,0,1-.38.84,1.53,1.53,0,0,1-.74.53,5.6,5.6,0,0,1-1.46.27c-.75,0-1.58.07-2.48.07a23.85,23.85,0,0,1-2.56-.11,1.91,1.91,0,0,1-1.28-.52c-.42-.45-.27-1.27-.06-2,.09-.34.2-.71.34-1.13l14.21-40.86a3.58,3.58,0,0,1,.49-1,1.93,1.93,0,0,1,.91-.57,7,7,0,0,1,1.73-.24c.37,0,.79,0,1.28,0l1.64,0c1.4,0,2.51,0,3.34.06a8.67,8.67,0,0,1,1.94.24c1.24.37,1.26,1.06,1.51,1.66ZM700.18,534h0l-6.51,19.57h13.06Z" transform="translate(-102.38 -139.22)"/><path class="cls-1" d="M781.44,570a1.1,1.1,0,0,1-.2.64,1.36,1.36,0,0,1-.71.47,9.52,9.52,0,0,1-2.34.36q-.54,0-1.2,0a18,18,0,0,1-2.14-.11,7.12,7.12,0,0,1-1.35-.28,1.15,1.15,0,0,1-.92-1.11V532.47h-.08l-13.34,37.45a1.69,1.69,0,0,1-.47.76,2.25,2.25,0,0,1-.87.48,13.15,13.15,0,0,1-3.47.29,20.13,20.13,0,0,1-2.06-.09,6.31,6.31,0,0,1-1.41-.29,2.54,2.54,0,0,1-.87-.48,1.35,1.35,0,0,1-.43-.67L736.7,532.47h-.07V570a1.1,1.1,0,0,1-.2.64,1.38,1.38,0,0,1-.73.47,9.76,9.76,0,0,1-2.33.36c-.35,0-.75,0-1.19,0a17.89,17.89,0,0,1-2.14-.11,7.75,7.75,0,0,1-1.37-.28,1.13,1.13,0,0,1-.91-1.11v-41a3.71,3.71,0,0,1,1-2.77,3.08,3.08,0,0,1,1.12-.72,4,4,0,0,1,1.44-.24h6.12a12.74,12.74,0,0,1,2.81.26,5.6,5.6,0,0,1,2,.89,5.05,5.05,0,0,1,1.42,1.64,11.34,11.34,0,0,1,1,2.51l10,27.44h.14l10.32-27.37a14.41,14.41,0,0,1,1-2.53,5.82,5.82,0,0,1,1.28-1.67,6,6,0,0,1,4-1.17h6.3a4.77,4.77,0,0,1,1.65.25,2.78,2.78,0,0,1,1.14.72,4.06,4.06,0,0,1,.91,2.76Z" transform="translate(-102.38 -139.22)"/><path class="cls-1" d="M818.69,569.29a4.27,4.27,0,0,1-.27,1.12,1.12,1.12,0,0,1-1,.82H794.25a2.9,2.9,0,0,1-2-.69,2.08,2.08,0,0,1-.6-.91,3.92,3.92,0,0,1-.2-1.35V528.13a2.83,2.83,0,0,1,.8-2.26,2.89,2.89,0,0,1,2-.69h23c.35,0,.68.05,1,.8a8.6,8.6,0,0,1,.36,2.9,13.44,13.44,0,0,1-.09,1.69,4.48,4.48,0,0,1-.27,1.12c-.26.65-.65.82-1,.82H800.8v11.25h13.92c.34,0,.69.07,1,.8a8,8,0,0,1,.36,2.79,13.34,13.34,0,0,1-.09,1.71,4,4,0,0,1-.27,1.08,1.09,1.09,0,0,1-1,.77H800.8v13h16.59c.34,0,.69.06,1,.82a8.48,8.48,0,0,1,.36,2.85A13.63,13.63,0,0,1,818.69,569.29Z" transform="translate(-102.38 -139.22)"/><path class="cls-1" d="M852.79,530.82a4,4,0,0,1-.29,1.15c-.29.65-.67.87-1,.86H836.43v12.38h14.13c.38,0,.7.11,1,.79a8.07,8.07,0,0,1,.37,2.92,14.68,14.68,0,0,1-.09,1.78,4.57,4.57,0,0,1-.28,1.17c-.3.71-.68.85-1,.86H836.43v17.15c0,.43,0,.79-1,1.16a9.63,9.63,0,0,1-2.45.38c-.38,0-.81,0-1.27,0a20.15,20.15,0,0,1-2.26-.11A6.63,6.63,0,0,1,828,571c-.84-.3-1-.76-1-1.16V528.13a2.86,2.86,0,0,1,.8-2.26,2.89,2.89,0,0,1,2-.69h21.68c.37,0,.69.13,1,.83a8.53,8.53,0,0,1,.37,3A18,18,0,0,1,852.79,530.82Z" transform="translate(-102.38 -139.22)"/><path class="cls-1" d="M894.52,570.68a1.15,1.15,0,0,1-.68.45,6.73,6.73,0,0,1-1.56.25l-1.22,0-1.6,0c-1,0-1.79,0-2.38-.07a5.5,5.5,0,0,1-1.41-.27,1.65,1.65,0,0,1-1.08-1.23l-4.13-10.29c-.5-1.16-1-2.19-1.46-3.09a9.7,9.7,0,0,0-1.58-2.26,5.87,5.87,0,0,0-3.24-1.72,34,34,0,0,0-4.33-.12V570a1,1,0,0,1-.23.64,1.63,1.63,0,0,1-.76.47,10.43,10.43,0,0,1-2.44.36c-.38,0-.8,0-1.27,0a20.15,20.15,0,0,1-2.26-.11,8.33,8.33,0,0,1-1.44-.28c-.8-.26-1-.73-1-1.11V528.13a2.86,2.86,0,0,1,.8-2.26,2.89,2.89,0,0,1,2-.69h11.92c1.21,0,2.21,0,3,.07s1.45.1,2.14.18a19.47,19.47,0,0,1,5,1.35,11.84,11.84,0,0,1,3.77,2.51,10.51,10.51,0,0,1,2.37,3.66,12.29,12.29,0,0,1,.61,2.28,15.14,15.14,0,0,1,.21,2.58,14.35,14.35,0,0,1-.59,4.22,10.81,10.81,0,0,1-1.73,3.4,12.19,12.19,0,0,1-4.6,3.59,16.64,16.64,0,0,1-2,.79,10.24,10.24,0,0,1,3.65,2.93,22.19,22.19,0,0,1,2.9,5.25l3.88,9.08c.36.9.59,1.56.71,2A2.27,2.27,0,0,1,894.52,570.68Zm-13-35.75a4.7,4.7,0,0,0-1.36-1.34,7.5,7.5,0,0,0-2-.87,12.29,12.29,0,0,0-1.62-.28,10,10,0,0,0-1.08-.08c-.42,0-.89,0-1.43,0h-4.2v13.06h4.77a11.46,11.46,0,0,0,3.49-.48,6.9,6.9,0,0,0,2.49-1.35,6.14,6.14,0,0,0,2-4.79A6.79,6.79,0,0,0,881.56,534.93Z" transform="translate(-102.38 -139.22)"/><path class="cls-1" d="M910.93,570a1,1,0,0,1-.23.64,1.67,1.67,0,0,1-.77.47,10.35,10.35,0,0,1-2.44.36q-.57,0-1.26,0a20,20,0,0,1-2.26-.11,8,8,0,0,1-1.44-.28c-.8-.26-1-.73-1-1.11V526.46a1,1,0,0,1,.23-.64,1.7,1.7,0,0,1,.78-.47A10.69,10.69,0,0,1,905,525c.38,0,.79,0,1.24,0a20.15,20.15,0,0,1,2.28.11,8.25,8.25,0,0,1,1.42.28c.8.26,1,.72,1,1.11Z" transform="translate(-102.38 -139.22)"/><path class="cls-1" d="M946.91,563.79a13.17,13.17,0,0,1-3.66,4.58,16.18,16.18,0,0,1-5.41,2.76,23.18,23.18,0,0,1-6.63.92,23.79,23.79,0,0,1-4.43-.39,24.75,24.75,0,0,1-3.61-.94,16.51,16.51,0,0,1-2.62-1.16,7.37,7.37,0,0,1-1.51-1.07,2.65,2.65,0,0,1-.66-1.33,8.27,8.27,0,0,1-.14-1.07c0-.41,0-.9,0-1.44,0-.74,0-1.35.07-1.85a5.31,5.31,0,0,1,.23-1.21,1.06,1.06,0,0,1,1-.86,3,3,0,0,1,1.41.59,23.37,23.37,0,0,0,2.33,1.3,21.3,21.3,0,0,0,3.4,1.3,14.56,14.56,0,0,0,2.13.44,18.69,18.69,0,0,0,2.44.15,10.64,10.64,0,0,0,3.06-.41,7,7,0,0,0,2.3-1.16,5.38,5.38,0,0,0,1.94-4.31,4.28,4.28,0,0,0-.86-2.68,8.47,8.47,0,0,0-2.22-2c-2.88-1.86-6.69-2.88-10.31-5.19a14.67,14.67,0,0,1-3.11-2.6,12.1,12.1,0,0,1-2.22-3.58,10.76,10.76,0,0,1-.65-2.27,16,16,0,0,1-.21-2.68,13.11,13.11,0,0,1,1.23-5.82,11.91,11.91,0,0,1,3.31-4.16,14,14,0,0,1,4.91-2.47,21.77,21.77,0,0,1,9.27-.57,22.24,22.24,0,0,1,3.06.67,18.17,18.17,0,0,1,2.53,1,6.25,6.25,0,0,1,1.46.89,2.4,2.4,0,0,1,.48.61,2.44,2.44,0,0,1,.21.66,13.51,13.51,0,0,1,.16,2.58c0,.69,0,1.27-.05,1.74a5.55,5.55,0,0,1-.18,1.18c-.22.82-.62.87-1,.89a3,3,0,0,1-1.24-.5c-.57-.33-1.27-.7-2.1-1.09a15.5,15.5,0,0,0-6.48-1.55,8.55,8.55,0,0,0-2.67.38,5.48,5.48,0,0,0-1.9,1,4.63,4.63,0,0,0-1.52,3.54,4.28,4.28,0,0,0,.84,2.65,8.27,8.27,0,0,0,2.24,2,69.28,69.28,0,0,0,6.82,3.25,37.39,37.39,0,0,1,3.63,1.94,14.76,14.76,0,0,1,3.17,2.6,12.3,12.3,0,0,1,2.24,3.56,10.73,10.73,0,0,1,.64,2.23,15.09,15.09,0,0,1,.21,2.59A14.22,14.22,0,0,1,946.91,563.79Z" transform="translate(-102.38 -139.22)"/><path class="cls-1" d="M995.73,557.92a20.74,20.74,0,0,1-4.27,7.67,18.46,18.46,0,0,1-7,4.81,22.83,22.83,0,0,1-4.5,1.24,31.19,31.19,0,0,1-5.16.41,23,23,0,0,1-6.73-.89l-3.38,6.91a1.41,1.41,0,0,1-.42.5,2.2,2.2,0,0,1-.77.33,12.18,12.18,0,0,1-2.9.27,12.87,12.87,0,0,1-2.08-.14,3,3,0,0,1-1.18-.41c-.58-.4-.45-1-.23-1.44l4.2-8.58a16.38,16.38,0,0,1-3.47-3.24,17.68,17.68,0,0,1-2.53-4.36,26.55,26.55,0,0,1-1.53-5.59c-.17-1-.3-2.13-.38-3.29s-.13-2.36-.13-3.63a33,33,0,0,1,1.42-10.06,20.46,20.46,0,0,1,4.25-7.59,18.68,18.68,0,0,1,7-4.81,21.64,21.64,0,0,1,4.51-1.25,30.48,30.48,0,0,1,5.19-.42,24.06,24.06,0,0,1,6.76.92l3.24-6.69a1.2,1.2,0,0,1,.42-.48,2.94,2.94,0,0,1,.77-.34,11.84,11.84,0,0,1,2.94-.28,12.52,12.52,0,0,1,2.06.14A3.15,3.15,0,0,1,993,518c.61.4.43,1,.22,1.44l-4.09,8.4a17.16,17.16,0,0,1,3.47,3.29,18.22,18.22,0,0,1,2.52,4.36,28.71,28.71,0,0,1,1.92,8.66c.09,1.11.13,2.27.13,3.48A33.71,33.71,0,0,1,995.73,557.92ZM987,541.51a15.87,15.87,0,0,0-.92-2.7,13.42,13.42,0,0,0-1.32-2.35l-13.42,27.41a10.72,10.72,0,0,0,3.88.67,12.62,12.62,0,0,0,5.94-1.26,10.24,10.24,0,0,0,3.85-3.51,15.26,15.26,0,0,0,2.08-5.27,32.82,32.82,0,0,0,.62-6.54A27.22,27.22,0,0,0,987,541.51Zm-7.83-9a9.89,9.89,0,0,0-3.95-.71,12.34,12.34,0,0,0-6,1.3,10.38,10.38,0,0,0-3.83,3.52,14.86,14.86,0,0,0-2,5.18,33,33,0,0,0,.07,13,14.57,14.57,0,0,0,.9,2.8,12,12,0,0,0,1.34,2.36Z" transform="translate(-102.38 -139.22)"/><path class="cls-1" d="M1039.06,570.68a1.12,1.12,0,0,1-.67.45,6.83,6.83,0,0,1-1.57.25l-1.22,0-1.59,0c-1,0-1.79,0-2.39-.07a5.33,5.33,0,0,1-1.4-.27,1.66,1.66,0,0,1-1.09-1.23L1025,559.59c-.5-1.16-1-2.19-1.46-3.09a9.7,9.7,0,0,0-1.58-2.26,5.83,5.83,0,0,0-3.24-1.72,33.88,33.88,0,0,0-4.32-.12V570a1,1,0,0,1-.24.64,1.58,1.58,0,0,1-.76.47,10.35,10.35,0,0,1-2.44.36q-.57,0-1.26,0a20,20,0,0,1-2.26-.11,8,8,0,0,1-1.44-.28c-.81-.26-1-.73-1-1.11V528.13a2.83,2.83,0,0,1,.8-2.26,2.87,2.87,0,0,1,2-.69h11.93c1.21,0,2.2,0,3,.07s1.44.1,2.13.18a19.36,19.36,0,0,1,5,1.35,11.84,11.84,0,0,1,3.77,2.51A10.24,10.24,0,0,1,1036,533a12.29,12.29,0,0,1,.62,2.28,16.27,16.27,0,0,1,.2,2.58,14.35,14.35,0,0,1-.59,4.22,10.79,10.79,0,0,1-1.72,3.4,12.35,12.35,0,0,1-4.6,3.59,17.31,17.31,0,0,1-2,.79,10.64,10.64,0,0,1,1.94,1.21,10.27,10.27,0,0,1,1.7,1.72,22.58,22.58,0,0,1,2.91,5.25l3.87,9.08c.36.9.6,1.56.72,2A2.32,2.32,0,0,1,1039.06,570.68Zm-13-35.75a4.74,4.74,0,0,0-1.37-1.34,7.43,7.43,0,0,0-2-.87,12.91,12.91,0,0,0-1.62-.28,10.44,10.44,0,0,0-1.09-.08c-.41,0-.89,0-1.42,0h-4.2v13.06h4.77a11.39,11.39,0,0,0,3.48-.48,7,7,0,0,0,2.5-1.35,6.17,6.17,0,0,0,2-4.79A6.87,6.87,0,0,0,1026.11,534.93Z" transform="translate(-102.38 -139.22)"/></svg>